<svg xmlns="http://www.w3.org/2000/svg" width="760" height="520" viewBox="0 0 760 520">
  <defs>
    <style>
      @import url('https://fonts.googleapis.com/css2?family=JetBrains+Mono:wght@400;700&amp;display=swap');
      text { font-family: 'JetBrains Mono', 'Courier New', monospace; }
    </style>
    <linearGradient id="topbar" x1="0" y1="0" x2="1" y2="0">
      <stop offset="0%" stop-color="#da7756"/>
      <stop offset="40%" stop-color="#c96442"/>
      <stop offset="100%" stop-color="transparent"/>
    </linearGradient>
    <linearGradient id="statusGrad" x1="0" y1="0" x2="1" y2="0">
      <stop offset="0%" stop-color="#da7756"/>
      <stop offset="100%" stop-color="#c96442"/>
    </linearGradient>
    <clipPath id="roundCard">
      <rect width="760" height="520" rx="10" ry="10"/>
    </clipPath>
  </defs>

  <!-- Window background -->
  <rect width="760" height="520" rx="10" ry="10" fill="#212121" stroke="#333333" stroke-width="1"/>

  <!-- Title bar -->
  <rect x="0" y="0" width="760" height="42" rx="10" ry="10" fill="#2a2a2a"/>
  <rect x="0" y="22" width="760" height="20" fill="#2a2a2a"/>
  <rect x="0" y="41" width="760" height="1" fill="#333333"/>

  <!-- Traffic lights -->
  <circle cx="20" cy="21" r="6" fill="#ff5f57"/>
  <circle cx="36" cy="21" r="6" fill="#febc2e"/>
  <circle cx="52" cy="21" r="6" fill="#28c840"/>

  <!-- Title bar text -->
  <text x="380" y="26" text-anchor="middle" fill="#6b6b6b" font-size="11">terminal       — </text>
  <text x="440" y="26" text-anchor="middle" fill="#888888" font-size="11">~/pranav-bhagath19</text>

  <!-- Prompt line -->
  <text x="24" y="72" fill="#4ec9b0" font-size="13" font-weight="bold">❯</text>
  <text x="38" y="72" fill="#da7756" font-size="13" font-weight="bold">query </text>
  <text x="92" y="72" fill="#ce9178" font-size="13">"who is pranav sai bhagath?"</text>
  <rect x="390" y="60" width="8" height="14" fill="#da7756" rx="1">
    <animate attributeName="opacity" values="1;0;1" dur="1.1s" repeatCount="indefinite"/>
  </rect>

  <!-- Separator -->
  <rect x="0" y="82" width="760" height="1" fill="#2a2a2a"/>

  <!-- Tool block -->
  <rect x="24" y="94" width="712" height="38" rx="0" ry="0" fill="#1a1a1a" stroke="#2a2a2a" stroke-width="1"/>
  <rect x="24" y="94" width="3" height="38" fill="#da7756"/>
  <text x="36" y="109" fill="#dcdcaa" font-size="11">⚙ fetch_profile</text>
  <text x="140" y="109" fill="#6b6b6b" font-size="10"> · done</text>
  <text x="36" y="124" fill="#6b6b6b" font-size="11">source: </text>
  <text x="82" y="124" fill="#ce9178" font-size="11">"https://pranavbhagath.in"</text>

  <!-- Response header -->
  <rect x="24" y="146" width="28" height="28" rx="6" fill="#da7756"/>
  <text x="38" y="165" text-anchor="middle" fill="white" font-size="13" font-weight="bold">◆</text>
  <text x="60" y="165" fill="#da7756" font-size="11" font-weight="bold" letter-spacing="1">RESULT</text>

  <!-- Card box -->
  <rect x="24" y="182" width="712" height="300" rx="8" fill="#1e1e1e" stroke="#333333" stroke-width="1"/>
  <!-- Card top accent line -->
  <rect x="24" y="182" width="712" height="2" rx="1" fill="url(#topbar)"/>

  <!-- Card header bg -->
  <rect x="24" y="184" width="712" height="74" fill="#1e1e1e"/>
  <rect x="24" y="257" width="712" height="1" fill="#2a2a2a"/>

  <!-- Avatar box -->
  <rect x="40" y="194" width="48" height="48" rx="8" fill="#2d2d2d" stroke="#333" stroke-width="2"/>
  <text x="64" y="224" text-anchor="middle" font-size="22">👨‍💻</text>

  <!-- Name & handle -->
  <text x="100" y="211" fill="#f0f0f0" font-size="14" font-weight="bold">Pranav Sai Bhagath V</text>
  <text x="100" y="227" fill="#569cd6" font-size="11">@pranav-bhagath19</text>
  <text x="208" y="227" fill="#6b6b6b" font-size="11"> · </text>
  <text x="222" y="227" fill="#569cd6" font-size="11">pranavbhagath.in</text>

  <!-- Badges -->
  <rect x="100" y="234" width="98" height="16" rx="3" fill="rgba(218,119,86,0.15)" stroke="#da7756" stroke-width="0.8" stroke-opacity="0.5"/>
  <text x="149" y="245" text-anchor="middle" fill="#da7756" font-size="9" font-weight="bold" letter-spacing="0.5">AI/ML DEVELOPER</text>

  <rect x="204" y="234" width="76" height="16" rx="3" fill="rgba(78,201,176,0.12)" stroke="#4ec9b0" stroke-width="0.8" stroke-opacity="0.5"/>
  <text x="242" y="245" text-anchor="middle" fill="#4ec9b0" font-size="9" font-weight="bold" letter-spacing="0.5">GDG AI LEAD</text>

  <rect x="286" y="234" width="118" height="16" rx="3" fill="rgba(86,156,214,0.12)" stroke="#569cd6" stroke-width="0.8" stroke-opacity="0.5"/>
  <text x="345" y="245" text-anchor="middle" fill="#569cd6" font-size="9" font-weight="bold" letter-spacing="0.5">5× HACKATHON WINNER</text>

  <rect x="410" y="234" width="126" height="16" rx="3" fill="rgba(197,134,192,0.12)" stroke="#c586c0" stroke-width="0.8" stroke-opacity="0.5"/>
  <text x="473" y="245" text-anchor="middle" fill="#c586c0" font-size="9" font-weight="bold" letter-spacing="0.5">OPEN TO OPPORTUNITIES</text>

  <!-- Fields -->
  <!-- role -->
  <text x="40" y="278" fill="#569cd6" font-size="11">role</text>
  <text x="170" y="278" fill="#ce9178" font-size="11">"AI/ML Developer &amp; Generative AI Specialist"</text>

  <!-- education -->
  <text x="40" y="296" fill="#569cd6" font-size="11">education</text>
  <text x="170" y="296" fill="#ce9178" font-size="11">"2nd Year CSE · VITB, Bhimavaram"</text>

  <!-- position -->
  <text x="40" y="314" fill="#569cd6" font-size="11">position</text>
  <text x="170" y="314" fill="#ce9178" font-size="11">"AI Lead @ GDG On Campus VITB"</text>

  <!-- projects -->
  <text x="40" y="332" fill="#569cd6" font-size="11">projects</text>
  <text x="170" y="332" fill="#b5cea8" font-size="11">10</text>
  <text x="184" y="332" fill="#c586c0" font-size="11">+</text>
  <text x="196" y="332" fill="#6a9955" font-size="11">// AI/ML projects shipped</text>

  <!-- focus -->
  <text x="40" y="350" fill="#569cd6" font-size="11">focus</text>
  <text x="170" y="350" fill="#dcdcaa" font-size="11">[ </text>
  <text x="184" y="350" fill="#ce9178" font-size="11">"Generative AI", "Agentic AI", "LLM Fine-tuning", "RAG"</text>
  <text x="556" y="350" fill="#dcdcaa" font-size="11"> ]</text>

  <!-- contact -->
  <text x="40" y="368" fill="#569cd6" font-size="11">contact</text>
  <text x="170" y="368" fill="#ce9178" font-size="11">"pranavsaibhagath@gmail.com"</text>

  <!-- Divider -->
  <rect x="40" y="378" width="680" height="1" fill="#2a2a2a"/>

  <!-- Tech stack title -->
  <text x="40" y="396" fill="#6a9955" font-size="10">// tech stack</text>

  <!-- Tech tags row 1 -->
  <rect x="40"  y="403" width="50"  height="16" rx="3" fill="#262626" stroke="#333" stroke-width="1"/>
  <text x="65"  y="414" text-anchor="middle" fill="#bbbbbb" font-size="10">Python</text>

  <rect x="96"  y="403" width="52"  height="16" rx="3" fill="#262626" stroke="#333" stroke-width="1"/>
  <text x="122" y="414" text-anchor="middle" fill="#bbbbbb" font-size="10">PyTorch</text>

  <rect x="154" y="403" width="70"  height="16" rx="3" fill="#262626" stroke="#333" stroke-width="1"/>
  <text x="189" y="414" text-anchor="middle" fill="#bbbbbb" font-size="10">TensorFlow</text>

  <rect x="230" y="403" width="68"  height="16" rx="3" fill="#262626" stroke="#333" stroke-width="1"/>
  <text x="264" y="414" text-anchor="middle" fill="#bbbbbb" font-size="10">LangChain</text>

  <rect x="304" y="403" width="32"  height="16" rx="3" fill="#262626" stroke="#333" stroke-width="1"/>
  <text x="320" y="414" text-anchor="middle" fill="#bbbbbb" font-size="10">RAG</text>

  <rect x="342" y="403" width="52"  height="16" rx="3" fill="#262626" stroke="#333" stroke-width="1"/>
  <text x="368" y="414" text-anchor="middle" fill="#bbbbbb" font-size="10">FastAPI</text>

  <rect x="400" y="403" width="48"  height="16" rx="3" fill="#262626" stroke="#333" stroke-width="1"/>
  <text x="424" y="414" text-anchor="middle" fill="#bbbbbb" font-size="10">Flutter</text>

  <rect x="454" y="403" width="56"  height="16" rx="3" fill="#262626" stroke="#333" stroke-width="1"/>
  <text x="482" y="414" text-anchor="middle" fill="#bbbbbb" font-size="10">Firebase</text>

  <rect x="516" y="403" width="62"  height="16" rx="3" fill="#262626" stroke="#333" stroke-width="1"/>
  <text x="547" y="414" text-anchor="middle" fill="#bbbbbb" font-size="10">Vertex AI</text>

  <rect x="584" y="403" width="58"  height="16" rx="3" fill="#262626" stroke="#333" stroke-width="1"/>
  <text x="613" y="414" text-anchor="middle" fill="#bbbbbb" font-size="10">Azure ML</text>

  <rect x="648" y="403" width="44"  height="16" rx="3" fill="#262626" stroke="#333" stroke-width="1"/>
  <text x="670" y="414" text-anchor="middle" fill="#bbbbbb" font-size="10">Docker</text>

  <!-- Tech tags row 2 -->
  <rect x="40"  y="424" width="52"  height="16" rx="3" fill="#262626" stroke="#333" stroke-width="1"/>
  <text x="66"  y="435" text-anchor="middle" fill="#bbbbbb" font-size="10">Pinecone</text>

  <rect x="98"  y="424" width="28"  height="16" rx="3" fill="#262626" stroke="#333" stroke-width="1"/>
  <text x="112" y="435" text-anchor="middle" fill="#bbbbbb" font-size="10">n8n</text>

  <rect x="132" y="424" width="40"  height="16" rx="3" fill="#262626" stroke="#333" stroke-width="1"/>
  <text x="152" y="435" text-anchor="middle" fill="#bbbbbb" font-size="10">Qiskit</text>

  <rect x="178" y="424" width="72"  height="16" rx="3" fill="#262626" stroke="#333" stroke-width="1"/>
  <text x="214" y="435" text-anchor="middle" fill="#bbbbbb" font-size="10">TypeScript</text>

  <!-- Links row separator -->
  <rect x="24" y="449" width="712" height="1" fill="#2a2a2a"/>

  <!-- Link chips -->
  <rect x="40"  y="457" width="126" height="20" rx="4" fill="#262626" stroke="#333" stroke-width="1"/>
  <text x="103" y="470" text-anchor="middle" fill="#aaaaaa" font-size="10">🌐 pranavbhagath.in</text>

  <rect x="172" y="457" width="64"  height="20" rx="4" fill="#262626" stroke="#333" stroke-width="1"/>
  <text x="204" y="470" text-anchor="middle" fill="#aaaaaa" font-size="10">💻 github</text>

  <rect x="242" y="457" width="68"  height="20" rx="4" fill="#262626" stroke="#333" stroke-width="1"/>
  <text x="276" y="470" text-anchor="middle" fill="#aaaaaa" font-size="10">💼 linkedin</text>

  <rect x="316" y="457" width="226" height="20" rx="4" fill="#262626" stroke="#333" stroke-width="1"/>
  <text x="429" y="470" text-anchor="middle" fill="#aaaaaa" font-size="10">📧 pranavsaibhagath@gmail.com</text>

  <!-- Status bar -->
  <rect x="0"  y="492" width="760" height="28" fill="#da7756"/>
  <rect x="0"  y="492" width="760" height="28" rx="0" fill="#da7756"/>
  <!-- round bottom corners -->
  <rect x="0"  y="492" width="760" height="14" fill="#da7756"/>
  <rect x="0"  y="492" width="760" height="28" rx="10" fill="#da7756"/>
  <rect x="0"  y="492" width="760" height="14" fill="#da7756"/>

  <text x="24"  y="510" fill="rgba(0,0,0,0.8)" font-size="11" font-weight="bold">◆ profile fetched</text>
  <text x="148" y="510" fill="rgba(0,0,0,0.4)" font-size="11"> · </text>
  <text x="162" y="510" fill="rgba(0,0,0,0.8)" font-size="11" font-weight="bold">✓ 10+ projects shipped</text>
  <text x="308" y="510" fill="rgba(0,0,0,0.4)" font-size="11"> · </text>
  <text x="322" y="510" fill="rgba(0,0,0,0.8)" font-size="11" font-weight="bold">⚡ building intelligent solutions</text>
</svg>
